# xmcd
#
# Track frame offsets:
#  150
#  13397
#  29255
#  57132
#  72885
#
# Disc length: 1216 seconds
#
# Revision: 5
# Processed by: cddbd v1.5.1PL2 Copyright (c) Steve Scherf et al.
# Submitted via: Collectorz.com Music Collector 6.9
#
DISCID=3d04be05
DTITLE=Josh Rouse - Chester
DYEAR=1999
DGENRE=Americana - Pop
TTITLE0=Somehow You Could Always Tell
TTITLE1=That's What I Know
TTITLE2=Table Dance
TTITLE3=65
TTITLE4=I Couldn't Wait
EXTD=
EXTT0=
EXTT1=
EXTT2=
EXTT3=
EXTT4=
PLAYORDER=
